<svg width="25" height="24" viewBox="0 0 25 24" fill="none" xmlns="http://www.w3.org/2000/svg">
<circle cx="12.916" cy="12" r="12" fill="#555A7B"/>
<path d="M19.1076 16.0275C19.0689 15.7348 18.8996 15.4824 18.6434 15.335L15.6336 13.6045C15.265 13.3926 14.7973 13.4543 14.4964 13.7547L13.9036 14.3467C13.7458 14.5043 13.4962 14.5182 13.3232 14.3791C12.8558 14.0036 12.3956 13.5903 11.9555 13.1507C11.5153 12.7111 11.1014 12.2516 10.7253 11.7849C10.586 11.612 10.6 11.3628 10.7578 11.2052L11.3506 10.6132C11.6515 10.3128 11.7133 9.84583 11.501 9.47763L9.7681 6.47199C9.62055 6.21607 9.3678 6.04709 9.07464 6.00835C8.78145 5.96954 8.49337 6.06719 8.28427 6.27601L7.391 7.16808C6.76754 7.7907 6.75753 8.92958 7.3628 10.375C7.94481 11.7648 9.03093 13.2947 10.421 14.683C11.8112 16.0712 13.3433 17.1559 14.735 17.7371C15.4475 18.0346 16.0855 18.1833 16.6242 18.1832C17.1798 18.1832 17.6298 18.025 17.9463 17.7089L18.8396 16.8168C19.0487 16.608 19.1464 16.3203 19.1076 16.0275ZM15.4364 13.9466L18.4462 15.6771C18.595 15.7627 18.6933 15.9093 18.7158 16.0793C18.7347 16.222 18.6976 16.3625 18.6134 16.4757L14.6135 14.196L14.7759 14.0338C14.9506 13.8593 15.2223 13.8235 15.4364 13.9466ZM9.02279 6.39966C9.19308 6.42215 9.33987 6.5203 9.42556 6.66894L11.1585 9.67459C11.2818 9.88843 11.2459 10.1597 11.0711 10.3341L10.9219 10.4831L8.62652 6.50188C8.72035 6.43249 8.83257 6.39481 8.94956 6.39481C8.97383 6.39481 8.99831 6.39642 9.02279 6.39966ZM17.6668 17.4298C17.1715 17.9244 16.1585 17.9037 14.8875 17.3729C13.5421 16.8111 12.0552 15.7566 10.7006 14.4039C9.34593 13.0511 8.29006 11.5662 7.72745 10.2227C7.1959 8.95345 7.17517 7.94182 7.67048 7.44716L8.33362 6.78491L10.6325 10.7722L10.4783 10.9261C10.1775 11.2265 10.1513 11.7021 10.4174 12.0323C10.8023 12.5101 11.2258 12.9803 11.676 13.4298C12.1262 13.8793 12.597 14.3022 13.0753 14.6866C13.406 14.9523 13.8822 14.9262 14.1831 14.6258L14.3237 14.4853L18.3293 16.7682L17.6668 17.4298Z" fill="white"/>
</svg>
